<svg xmlns="http://www.w3.org/2000/svg" fill="none" viewBox="0 0 1563 938" height="938" width="1563">
<path fill="#0286C0" d="M639.31 284.36V485.524H618.095L612.582 471.742C607.253 477.072 601.191 481.255 594.398 484.289C587.604 487.314 579.796 488.829 570.975 488.829C561.786 488.829 553.334 487.036 545.62 483.454C537.902 479.871 531.198 474.956 525.502 468.711C519.812 462.467 515.36 455.122 512.144 446.673C508.924 438.218 507.317 429.217 507.317 419.67C507.317 410.117 508.924 401.117 512.144 392.668C515.36 384.213 519.812 376.862 525.502 370.617C531.198 364.373 537.902 359.461 545.62 355.875C553.334 352.293 561.786 350.5 570.975 350.5C580.162 350.5 588.153 352.018 594.947 355.052C601.746 358.08 607.625 362.348 612.582 367.861V284.36H639.31ZM573.182 465.132C578.695 465.132 583.79 464.214 588.474 462.375C593.154 460.54 597.286 457.738 600.871 453.969C604.454 450.204 607.256 445.472 609.277 439.776C611.296 434.081 612.308 427.379 612.308 419.67C612.308 411.398 611.296 404.413 609.277 398.718C607.256 393.022 604.454 388.387 600.871 384.811C597.286 381.228 593.154 378.655 588.474 377.091C583.79 375.529 578.695 374.746 573.182 374.746C567.853 374.746 562.798 375.898 558.017 378.2C553.242 380.496 549.111 383.664 545.62 387.704C542.134 391.747 539.381 396.522 537.362 402.034C535.341 407.541 534.331 413.42 534.331 419.67C534.331 425.915 535.341 431.793 537.362 437.306C539.381 442.813 542.134 447.633 545.62 451.773C549.111 455.908 553.242 459.167 558.017 461.552C562.798 463.939 567.853 465.132 573.182 465.132Z"></path>
<path fill="#0286C0" d="M721.433 488.829C711.877 488.829 702.919 487.036 694.556 483.454C686.199 479.871 678.899 474.956 672.655 468.712C666.41 462.467 661.495 455.122 657.912 446.673C654.327 438.218 652.537 429.217 652.537 419.67C652.537 410.118 654.235 401.117 657.638 392.668C661.038 384.213 665.632 376.862 671.419 370.617C677.206 364.373 683.954 359.461 691.663 355.875C699.377 352.293 707.646 350.5 716.469 350.5C725.473 350.5 733.785 352.064 741.402 355.189C749.024 358.309 755.641 363.178 761.245 369.794C766.849 376.405 771.209 384.808 774.328 395.001C777.454 405.197 779.018 417.369 779.018 431.519H680.923C682.204 436.294 684.22 440.746 686.974 444.877C689.733 449.012 692.995 452.594 696.764 455.628C700.529 458.656 704.752 460.997 709.436 462.65C714.125 464.306 719.043 465.132 724.189 465.132C731.166 465.132 737.639 463.848 743.609 461.278C749.579 458.702 754.674 455.302 758.9 451.076L775.438 467.614C769.01 474.041 761.156 479.185 751.878 483.042C742.597 486.899 732.449 488.829 721.433 488.829ZM716.469 374.746C712.243 374.746 708.249 375.575 704.483 377.228C700.715 378.883 697.224 381.182 694.007 384.124C690.796 387.061 688.04 390.549 685.738 394.589C683.442 398.632 681.747 403.038 680.649 407.81H750.357C749.991 403.404 748.979 399.181 747.326 395.138C745.679 391.098 743.383 387.564 740.441 384.536C737.505 381.503 734.062 379.112 730.113 377.365C726.162 375.621 721.616 374.746 716.469 374.746Z"></path>
<path fill="#0286C0" d="M810.159 485.524V377.502H787.56V359.043L810.159 353.53V337.553C810.159 328.183 811.351 320.055 813.739 313.17C816.123 306.279 819.383 300.629 823.517 296.22C827.649 291.806 832.381 288.543 837.71 286.43C843.04 284.32 848.735 283.262 854.797 283.262C862.328 283.262 869.954 284.826 877.671 287.951V307.508C871.052 305.49 865.356 304.478 860.584 304.478C853.05 304.478 847.217 306.776 843.086 311.374C838.951 315.966 836.887 323.311 836.887 333.413V353.53H877.671V377.502H836.887V485.524H810.159Z"></path>
<path fill="#0286C0" d="M909.909 485.524H883.181V353.531H909.635L909.909 485.524ZM896.402 324.87C891.627 324.87 887.587 323.174 884.279 319.78C880.968 316.381 879.315 312.289 879.315 307.509C879.315 302.737 880.968 298.696 884.279 295.385C887.587 292.077 891.627 290.422 896.402 290.422C901.183 290.422 905.223 292.077 908.525 295.385C911.833 298.696 913.489 302.737 913.489 307.509C913.489 312.289 911.833 316.381 908.525 319.78C905.223 323.174 901.183 324.87 896.402 324.87Z"></path>
<path fill="#0286C0" d="M952.339 485.524H925.611V353.531H946.827L952.339 365.105C956.745 360.882 962.072 357.394 968.317 354.64C974.567 351.881 981.369 350.5 988.72 350.5C993.492 350.5 998.91 351.238 1004.97 352.707C1011.03 354.171 1016.68 356.928 1021.92 360.976C1027.16 365.019 1031.57 370.623 1035.14 377.788C1038.72 384.948 1040.52 394.223 1040.52 405.614V485.524H1015.17V405.34C1015.17 399.644 1014.3 394.824 1012.55 390.872C1010.81 386.924 1008.51 383.756 1005.66 381.368C1002.81 378.975 999.599 377.274 996.017 376.267C992.431 375.255 988.711 374.746 984.854 374.746C981.918 374.746 978.567 375.301 974.801 376.405C971.033 377.502 967.496 379.295 964.188 381.78C960.886 384.259 958.084 387.381 955.782 391.147C953.486 394.915 952.339 399.553 952.339 405.065V485.524Z"></path>
<path fill="#0286C0" d="M1122.09 488.829C1112.53 488.829 1103.57 487.036 1095.21 483.454C1086.85 479.871 1079.55 474.956 1073.31 468.712C1067.06 462.467 1062.15 455.122 1058.57 446.673C1054.98 438.218 1053.19 429.217 1053.19 419.67C1053.19 410.118 1054.89 401.117 1058.29 392.668C1061.69 384.213 1066.29 376.862 1072.07 370.617C1077.86 364.373 1084.61 359.461 1092.32 355.875C1100.03 352.293 1108.3 350.5 1117.12 350.5C1126.13 350.5 1134.44 352.064 1142.06 355.189C1149.68 358.309 1156.29 363.178 1161.9 369.794C1167.5 376.405 1171.86 384.808 1174.98 395.001C1178.11 405.197 1179.67 417.369 1179.67 431.519H1081.58C1082.86 436.294 1084.87 440.746 1087.63 444.877C1090.39 449.012 1093.65 452.594 1097.42 455.628C1101.18 458.656 1105.41 460.997 1110.09 462.65C1114.78 464.306 1119.7 465.132 1124.84 465.132C1131.82 465.132 1138.29 463.848 1144.26 461.278C1150.23 458.702 1155.33 455.302 1159.55 451.076L1176.09 467.614C1169.66 474.041 1161.81 479.185 1152.53 483.042C1143.25 486.899 1133.1 488.829 1122.09 488.829ZM1117.12 374.746C1112.9 374.746 1108.9 375.575 1105.14 377.228C1101.37 378.883 1097.88 381.182 1094.66 384.124C1091.45 387.061 1088.69 390.549 1086.39 394.589C1084.1 398.632 1082.4 403.038 1081.3 407.81H1151.01C1150.65 403.404 1149.63 399.181 1147.98 395.138C1146.33 391.098 1144.04 387.564 1141.1 384.536C1138.16 381.503 1134.72 379.112 1130.77 377.365C1126.82 375.621 1122.27 374.746 1117.12 374.746Z"></path>
<path fill="#0286C0" d="M1318 284.36V485.524H1296.78L1291.27 471.742C1285.94 477.072 1279.88 481.255 1273.09 484.289C1266.29 487.314 1258.49 488.829 1249.66 488.829C1240.48 488.829 1232.02 487.036 1224.31 483.454C1216.59 479.871 1209.89 474.956 1204.19 468.711C1198.5 462.467 1194.05 455.122 1190.83 446.673C1187.61 438.218 1186.01 429.217 1186.01 419.67C1186.01 410.117 1187.61 401.117 1190.83 392.668C1194.05 384.213 1198.5 376.862 1204.19 370.617C1209.89 364.373 1216.59 359.461 1224.31 355.875C1232.02 352.293 1240.48 350.5 1249.66 350.5C1258.85 350.5 1266.84 352.018 1273.64 355.052C1280.44 358.08 1286.31 362.348 1291.27 367.861V284.36H1318ZM1251.87 465.132C1257.38 465.132 1262.48 464.214 1267.16 462.375C1271.84 460.54 1275.98 457.738 1279.56 453.969C1283.14 450.204 1285.95 445.472 1287.97 439.776C1289.99 434.081 1291 427.379 1291 419.67C1291 411.398 1289.99 404.413 1287.97 398.718C1285.95 393.022 1283.14 388.387 1279.56 384.811C1275.98 381.228 1271.84 378.655 1267.16 377.091C1262.48 375.529 1257.38 374.746 1251.87 374.746C1246.54 374.746 1241.49 375.898 1236.71 378.2C1231.93 380.496 1227.8 383.664 1224.31 387.704C1220.82 391.747 1218.07 396.522 1216.05 402.034C1214.03 407.541 1213.02 413.42 1213.02 419.67C1213.02 425.915 1214.03 431.793 1216.05 437.306C1218.07 442.813 1220.82 447.633 1224.31 451.773C1227.8 455.908 1231.93 459.167 1236.71 461.552C1241.49 463.939 1246.54 465.132 1251.87 465.132Z"></path>
<path fill="#33B9CB" d="M527.313 638.751H511.907V492.634H531.316V553.284C535.05 549.281 539.384 546.181 544.319 543.985C549.26 541.784 555.001 540.68 561.543 540.68C568.214 540.68 574.381 541.981 580.048 544.58C585.721 547.182 590.627 550.75 594.767 555.285C598.908 559.823 602.144 565.161 604.477 571.297C606.81 577.435 607.977 583.974 607.977 590.911C607.977 597.85 606.81 604.389 604.477 610.525C602.144 616.664 598.908 622.002 594.767 626.537C590.627 631.074 585.721 634.646 580.048 637.253C574.381 639.852 568.214 641.153 561.543 641.153C555.267 641.153 549.629 640.05 544.628 637.848C539.625 635.646 535.187 632.61 531.316 628.744L527.313 638.751ZM559.942 558.293C556.068 558.293 552.397 558.862 548.928 559.997C545.457 561.126 542.424 562.994 539.825 565.601C537.223 568.203 535.187 571.571 533.717 575.711C532.253 579.846 531.521 584.912 531.521 590.911C531.521 596.515 532.253 601.387 533.717 605.527C535.187 609.662 537.223 613.096 539.825 615.832C542.424 618.571 545.457 620.607 548.928 621.939C552.397 623.274 556.068 623.941 559.942 623.941C563.808 623.941 567.473 623.077 570.944 621.344C574.413 619.606 577.412 617.236 579.945 614.231C582.484 611.229 584.486 607.723 585.95 603.72C587.419 599.717 588.157 595.449 588.157 590.911C588.157 586.376 587.419 582.105 585.95 578.102C584.486 574.099 582.484 570.63 579.945 567.694C577.412 564.76 574.413 562.462 570.944 560.798C567.473 559.128 563.808 558.293 559.942 558.293Z"></path>
<path fill="#33B9CB" d="M638.2 638.752H618.781V542.876H637.995L638.2 638.752ZM628.388 522.061C624.916 522.061 621.983 520.826 619.581 518.355C617.179 515.885 615.979 512.917 615.979 509.446C615.979 505.978 617.179 503.041 619.581 500.64C621.983 498.238 624.916 497.037 628.388 497.037C631.856 497.037 634.792 498.238 637.194 500.64C639.596 503.041 640.797 505.978 640.797 509.446C640.797 512.917 639.596 515.885 637.194 518.355C634.792 520.826 631.856 522.061 628.388 522.061Z"></path>
<path fill="#33B9CB" d="M692.034 641.153C685.361 641.153 679.125 639.852 673.323 637.253C667.519 634.646 662.45 631.074 658.112 626.537C653.772 622.002 650.335 616.664 647.796 610.525C645.263 604.389 643.999 597.85 643.999 590.911C643.999 583.975 645.263 577.435 647.796 571.297C650.335 565.161 653.772 559.823 658.112 555.285C662.45 550.75 667.519 547.182 673.323 544.58C679.125 541.981 685.361 540.68 692.034 540.68C698.576 540.68 704.78 541.981 710.653 544.58C716.523 547.182 721.624 550.75 725.956 555.285C730.293 559.823 733.733 565.161 736.272 571.297C738.811 577.435 740.08 583.975 740.08 590.911C740.08 597.85 738.811 604.389 736.272 610.525C733.733 616.664 730.293 622.002 725.956 626.537C721.624 631.074 716.523 634.646 710.653 637.253C704.78 639.852 698.576 641.153 692.034 641.153ZM692.034 558.087C688.168 558.087 684.5 558.956 681.032 560.695C677.561 562.427 674.524 564.761 671.916 567.694C669.315 570.631 667.279 574.099 665.809 578.102C664.345 582.105 663.613 586.376 663.613 590.911C663.613 595.449 664.345 599.717 665.809 603.72C667.279 607.723 669.315 611.229 671.916 614.231C674.524 617.236 677.561 619.606 681.032 621.345C684.5 623.077 688.168 623.941 692.034 623.941C695.905 623.941 699.577 623.077 703.048 621.345C706.516 619.606 709.515 617.236 712.048 614.231C714.587 611.229 716.589 607.723 718.053 603.72C719.522 599.717 720.26 595.449 720.26 590.911C720.26 586.376 719.522 582.105 718.053 578.102C716.589 574.099 714.587 570.631 712.048 567.694C709.515 564.761 706.516 562.427 703.048 560.695C699.577 558.956 695.905 558.087 692.034 558.087Z"></path>
<path fill="#33B9CB" d="M790.313 618.737C791.508 617.67 792.572 616.47 793.504 615.134C794.441 613.802 794.91 612.264 794.91 610.525C794.91 608.392 794.144 606.591 792.612 605.127C791.079 603.657 789.209 602.422 787.007 601.421C784.803 600.424 782.501 599.657 780.1 599.123C777.698 598.591 775.696 598.122 774.095 597.716C769.695 596.649 765.558 595.348 761.686 593.816C757.821 592.283 754.45 590.416 751.576 588.212C748.708 586.01 746.441 583.408 744.771 580.412C743.107 577.41 742.278 573.836 742.278 569.696C742.278 565.83 743.21 562.199 745.08 558.796C746.947 555.388 749.449 552.386 752.582 549.784C755.716 547.185 759.382 545.118 763.585 543.585C767.794 542.047 772.231 541.275 776.897 541.275C781.037 541.275 784.975 541.878 788.712 543.082C792.446 544.28 795.814 545.915 798.81 547.988C801.813 550.056 804.349 552.557 806.416 555.491C808.489 558.427 809.858 561.695 810.522 565.292L793.115 569.501C792.314 566.299 790.579 563.631 787.911 561.495C785.24 559.362 781.569 558.293 776.897 558.293C775.296 558.293 773.626 558.527 771.888 558.991C770.155 559.457 768.554 560.157 767.084 561.095C765.621 562.027 764.388 563.159 763.39 564.492C762.39 565.827 761.892 567.362 761.892 569.101C761.892 570.971 762.455 572.572 763.585 573.904C764.72 575.24 766.089 576.34 767.691 577.21C769.292 578.073 771.024 578.771 772.894 579.303C774.761 579.837 776.497 580.306 778.098 580.709C785.172 582.442 791.045 584.309 795.711 586.313C800.383 588.312 804.12 590.511 806.919 592.912C809.724 595.314 811.691 597.953 812.821 600.827C813.956 603.695 814.525 606.928 814.525 610.525C814.525 614.797 813.555 618.8 811.62 622.534C809.69 626.271 807.022 629.508 803.614 632.244C800.211 634.983 796.146 637.122 791.411 638.66C786.676 640.193 781.569 640.959 776.097 640.959C767.822 640.959 760.451 638.923 753.978 634.851C747.51 630.78 743.141 625.342 740.871 618.531L757.283 611.131C759.416 615.798 762.149 618.966 765.483 620.635C768.823 622.305 772.626 623.14 776.897 623.14C782.233 623.14 786.704 621.673 790.313 618.737Z"></path>
<path fill="#33B9CB" d="M865.763 641.153C859.09 641.153 852.854 639.852 847.053 637.253C841.248 634.646 836.179 631.074 831.842 626.537C827.501 622.002 824.065 616.664 821.526 610.525C818.992 604.389 817.729 597.85 817.729 590.911C817.729 583.975 818.992 577.435 821.526 571.297C824.065 565.161 827.501 559.823 831.842 555.285C836.179 550.75 841.248 547.182 847.053 544.58C852.854 541.981 859.09 540.68 865.763 540.68C873.5 540.68 880.637 542.416 887.173 545.884C893.715 549.355 899.188 554.09 903.597 560.089L889.987 570.702C887.316 566.831 883.948 563.794 879.877 561.598C875.805 559.397 871.436 558.293 866.77 558.293C862.767 558.293 858.961 559.128 855.356 560.798C851.756 562.462 848.622 564.761 845.955 567.694C843.284 570.631 841.18 574.099 839.642 578.102C838.109 582.105 837.343 586.376 837.343 590.911C837.343 595.449 838.109 599.717 839.642 603.72C841.18 607.723 843.284 611.229 845.955 614.231C848.622 617.236 851.756 619.606 855.356 621.345C858.961 623.077 862.767 623.941 866.77 623.941C871.968 623.941 876.703 622.543 880.974 619.743C885.243 616.938 888.712 613.199 891.382 608.524L904.592 620.132C900.32 626.537 894.782 631.643 887.974 635.446C881.172 639.249 873.769 641.153 865.763 641.153Z"></path>
<path fill="#33B9CB" d="M933.62 638.752H914.2V542.876H933.414L933.62 638.752ZM923.807 522.061C920.336 522.061 917.403 520.826 915.001 518.355C912.599 515.885 911.398 512.917 911.398 509.446C911.398 505.978 912.599 503.041 915.001 500.64C917.403 498.238 920.336 497.037 923.807 497.037C927.276 497.037 930.212 498.238 932.614 500.64C935.016 503.041 936.216 505.978 936.216 509.446C936.216 512.917 935.016 515.885 932.614 518.355C930.212 520.826 927.276 522.061 923.807 522.061Z"></path>
<path fill="#33B9CB" d="M990.862 641.153C983.922 641.153 977.415 639.852 971.339 637.253C965.269 634.646 959.965 631.074 955.43 626.537C950.893 622.002 947.324 616.664 944.725 610.525C942.123 604.389 940.825 597.85 940.825 590.911C940.825 583.975 942.055 577.435 944.519 571.297C946.99 565.161 950.324 559.823 954.527 555.285C958.735 550.75 963.642 547.182 969.246 544.58C974.85 541.981 980.854 540.68 987.259 540.68C993.792 540.68 999.828 541.818 1005.36 544.088C1010.9 546.353 1015.71 549.887 1019.77 554.69C1023.85 559.494 1027.01 565.598 1029.28 573.001C1031.55 580.406 1032.69 589.247 1032.69 599.523H961.434C962.372 602.994 963.839 606.231 965.838 609.233C967.842 612.229 970.209 614.831 972.94 617.033C975.676 619.237 978.744 620.941 982.147 622.145C985.555 623.343 989.126 623.941 992.863 623.941C997.932 623.941 1002.63 623.009 1006.96 621.139C1011.3 619.272 1015.01 616.801 1018.08 613.728L1030.09 625.736C1025.42 630.411 1019.71 634.151 1012.97 636.956C1006.24 639.752 998.867 641.153 990.862 641.153ZM987.259 558.293C984.185 558.293 981.28 558.896 978.544 560.1C975.813 561.298 973.277 562.965 970.939 565.098C968.605 567.234 966.604 569.77 964.934 572.703C963.27 575.64 962.041 578.842 961.24 582.31H1011.87C1011.6 579.108 1010.87 576.04 1009.66 573.104C1008.47 570.17 1006.8 567.6 1004.67 565.395C1002.53 563.194 1000.03 561.458 997.163 560.192C994.295 558.928 990.993 558.293 987.259 558.293Z"></path>
<path fill="#33B9CB" d="M1060.51 638.751H1041.09V542.876H1056.51L1060.51 551.282C1063.72 548.217 1067.58 545.687 1072.12 543.688C1076.66 541.684 1081.59 540.68 1086.93 540.68C1090.4 540.68 1094.34 541.215 1098.74 542.281C1103.14 543.351 1107.24 545.352 1111.04 548.286C1114.84 551.222 1118.05 555.294 1120.65 560.5C1123.26 565.701 1124.56 572.438 1124.56 580.709V638.751H1106.15V580.503C1106.15 576.372 1105.51 572.872 1104.24 570.004C1102.97 567.131 1101.3 564.829 1099.24 563.096C1097.17 561.358 1094.84 560.123 1092.23 559.391C1089.63 558.659 1086.93 558.293 1084.13 558.293C1081.99 558.293 1079.56 558.693 1076.82 559.494C1074.08 560.294 1071.52 561.595 1069.11 563.394C1066.71 565.195 1064.68 567.462 1063.01 570.199C1061.34 572.938 1060.51 576.306 1060.51 580.309V638.751Z"></path>
<path fill="#33B9CB" d="M1182.4 641.153C1175.72 641.153 1169.49 639.852 1163.69 637.253C1157.88 634.646 1152.81 631.074 1148.48 626.537C1144.14 622.002 1140.7 616.664 1138.16 610.525C1135.63 604.389 1134.36 597.85 1134.36 590.911C1134.36 583.975 1135.63 577.435 1138.16 571.297C1140.7 565.161 1144.14 559.823 1148.48 555.285C1152.81 550.75 1157.88 547.182 1163.69 544.58C1169.49 541.981 1175.72 540.68 1182.4 540.68C1190.14 540.68 1197.27 542.416 1203.81 545.884C1210.35 549.355 1215.82 554.09 1220.23 560.089L1206.62 570.702C1203.95 566.831 1200.58 563.794 1196.51 561.598C1192.44 559.397 1188.07 558.293 1183.4 558.293C1179.4 558.293 1175.6 559.128 1171.99 560.798C1168.39 562.462 1165.26 564.761 1162.59 567.694C1159.92 570.631 1157.81 574.099 1156.28 578.102C1154.74 582.105 1153.98 586.376 1153.98 590.911C1153.98 595.449 1154.74 599.717 1156.28 603.72C1157.81 607.723 1159.92 611.229 1162.59 614.231C1165.26 617.236 1168.39 619.606 1171.99 621.345C1175.6 623.077 1179.4 623.941 1183.4 623.941C1188.6 623.941 1193.34 622.543 1197.61 619.743C1201.88 616.938 1205.35 613.199 1208.02 608.524L1221.23 620.132C1216.95 626.537 1211.42 631.643 1204.61 635.446C1197.81 639.249 1190.4 641.153 1182.4 641.153Z"></path>
<path fill="#33B9CB" d="M1275.47 641.153C1268.53 641.153 1262.03 639.852 1255.95 637.253C1249.88 634.646 1244.58 631.074 1240.04 626.537C1235.5 622.002 1231.94 616.664 1229.34 610.525C1226.74 604.389 1225.44 597.85 1225.44 590.911C1225.44 583.975 1226.67 577.435 1229.13 571.297C1231.6 565.161 1234.94 559.823 1239.14 555.285C1243.35 550.75 1248.25 547.182 1253.86 544.58C1259.46 541.981 1265.47 540.68 1271.87 540.68C1278.4 540.68 1284.44 541.818 1289.98 544.088C1295.52 546.353 1300.32 549.887 1304.39 554.69C1308.46 559.494 1311.63 565.598 1313.89 573.001C1316.16 580.406 1317.3 589.247 1317.3 599.523H1246.05C1246.98 602.994 1248.45 606.231 1250.45 609.233C1252.45 612.229 1254.82 614.831 1257.55 617.033C1260.29 619.237 1263.36 620.941 1266.76 622.145C1270.17 623.343 1273.74 623.941 1277.48 623.941C1282.54 623.941 1287.25 623.009 1291.58 621.139C1295.91 619.272 1299.62 616.801 1302.69 613.728L1314.7 625.736C1310.03 630.411 1304.32 634.151 1297.58 636.956C1290.85 639.752 1283.48 641.153 1275.47 641.153ZM1271.87 558.293C1268.8 558.293 1265.89 558.896 1263.16 560.1C1260.43 561.298 1257.89 562.965 1255.55 565.098C1253.22 567.234 1251.22 569.77 1249.55 572.703C1247.88 575.64 1246.65 578.842 1245.85 582.31H1296.48C1296.21 579.108 1295.48 576.04 1294.28 573.104C1293.08 570.17 1291.41 567.6 1289.28 565.395C1287.14 563.194 1284.64 561.458 1281.78 560.192C1278.91 558.928 1275.61 558.293 1271.87 558.293Z"></path>
<mask height="300" width="85" y="283" x="308" maskUnits="userSpaceOnUse" style="mask-type:luminance" id="mask0_1244_17063">
<path fill="white" d="M308.998 283H392.294V582.927H308.998V283Z"></path>
</mask>
<g mask="url(#mask0_1244_17063)">
<path stroke-width="1.49733" stroke="#81C3E0" d="M385.514 283C362.691 295.409 344.798 311.71 331.845 331.904C327.58 338.55 324.196 346.359 321.694 355.325C319.117 364.521 317.553 370.449 316.997 373.108C315.668 379.479 315.512 385.682 316.526 391.722C319.177 407.512 325.323 422.719 334.96 437.346C342.68 449.044 349.939 459.19 356.734 467.786C360.094 472.033 362.605 475.891 364.267 479.351C368.894 488.935 372.603 499.43 375.389 510.833C380.829 533.059 380.465 554.755 374.295 575.928"></path>
</g>
<path stroke-width="1.49733" stroke="#D3ECF0" d="M374.293 575.928C372.391 575.097 370.445 574.414 368.448 573.878C355.07 570.278 343.099 564.008 332.536 555.072C314.587 539.883 303.317 521.165 298.727 498.921C296.872 489.902 296.405 480.724 297.331 471.388C298.372 460.769 300.889 450.443 304.876 440.404C305.598 438.606 306.033 437.218 306.181 436.251C306.834 432.151 304.98 431.509 300.611 434.325C286.605 443.383 275.27 455.037 266.609 469.282"></path>
<path stroke-width="1.49733" stroke="#99DCE5" d="M266.611 469.282C260.257 478.6 255.412 488.639 252.069 499.406"></path>
<mask height="67" width="16" y="492" x="244" maskUnits="userSpaceOnUse" style="mask-type:luminance" id="mask1_1244_17063">
<path fill="white" d="M244 492.816H259.02V558.695H244V492.816Z"></path>
</mask>
<g mask="url(#mask1_1244_17063)">
<path stroke-width="1.49733" stroke="#81C3E0" d="M252.07 499.406C246.917 516.506 245.568 533.934 248.023 551.691"></path>
</g>
<mask height="111" width="106" y="545" x="244" maskUnits="userSpaceOnUse" style="mask-type:luminance" id="mask2_1244_17063">
<path fill="white" d="M244 545.064H349.888V655.567H244V545.064Z"></path>
</mask>
<g mask="url(#mask2_1244_17063)">
<path stroke-width="1.49733" stroke="#99DCE5" d="M248.022 551.69C252.261 578.604 264.223 601.366 283.908 619.971C300.585 635.722 320.229 645.723 342.842 649.971"></path>
</g>
<mask height="13" width="27" y="643" x="336" maskUnits="userSpaceOnUse" style="mask-type:luminance" id="mask3_1244_17063">
<path fill="white" d="M336.259 643.505H362.005V655.567H336.259V643.505Z"></path>
</mask>
<g mask="url(#mask3_1244_17063)">
<path stroke-width="1.49733" stroke="#81C3E0" d="M342.842 649.971L354.961 651.355"></path>
</g>
<mask height="358" width="139" y="298" x="348" maskUnits="userSpaceOnUse" style="mask-type:luminance" id="mask4_1244_17063">
<path fill="white" d="M348.374 298.964H486.143V655.568H348.374V298.964Z"></path>
</mask>
<g mask="url(#mask4_1244_17063)">
<path stroke-width="1.49733" stroke="#99DCE5" d="M354.961 651.356C396.041 653.832 429.483 639.74 455.291 609.087C468.392 593.51 476.766 575.727 480.413 555.734C481.466 549.954 482.212 541.69 482.644 530.944C483.117 519.532 483.143 511.211 482.726 505.985C479.615 466.845 471.513 428.785 458.421 391.805C447.267 360.291 431.246 331.507 410.36 305.451"></path>
</g>
<mask height="30" width="38" y="283" x="380" maskUnits="userSpaceOnUse" style="mask-type:luminance" id="mask5_1244_17063">
<path fill="white" d="M380.936 283H417.283V312.594H380.936V283Z"></path>
</mask>
<g mask="url(#mask5_1244_17063)">
<path stroke-width="1.49733" stroke="#81C3E0" d="M410.361 305.451C403.566 297.287 396.092 289.803 387.937 283"></path>
</g>
<path stroke-width="1.49733" stroke="#1BA0C6" d="M410.36 305.451C409.982 305.551 409.653 305.528 409.378 305.38C409.018 305.188 408.615 305.199 408.423 305.421C406.308 307.767 404.078 310.003 401.732 312.127C395.378 317.877 389.829 324.328 385.085 331.475C367.384 358.167 365.358 386.206 379.003 415.587C381.284 420.479 383.68 425.31 386.191 430.072C401.17 458.474 409.571 488.743 411.399 520.875C412.251 535.786 410.375 550.321 405.776 564.475C398.206 587.781 383.168 603.937 360.667 612.95C359.993 613.219 358.866 613.435 357.286 613.601C356.124 613.722 355.003 614.071 353.923 614.654"></path>
<path stroke-width="1.49733" stroke="#55B0D0" d="M353.923 614.654C363.654 603.298 370.446 590.39 374.294 575.928"></path>
<mask height="14" width="27" y="642" x="336" maskUnits="userSpaceOnUse" style="mask-type:luminance" id="mask6_1244_17063">
<path fill="white" d="M336.259 642.748H362.005V655.568H336.259V642.748Z"></path>
</mask>
<g mask="url(#mask6_1244_17063)">
<path stroke-width="1.49733" stroke="#1BA0C6" d="M354.961 651.356C351.009 650.167 346.968 649.705 342.842 649.971"></path>
</g>
<mask height="67" width="16" y="492" x="244" maskUnits="userSpaceOnUse" style="mask-type:luminance" id="mask7_1244_17063">
<path fill="white" d="M244 492.816H259.02V558.695H244V492.816Z"></path>
</mask>
<g mask="url(#mask7_1244_17063)">
<path stroke-width="1.49733" stroke="#1BA0C6" d="M248.023 551.691C248.191 551.173 248.171 549.904 247.969 547.881C246.408 532.343 247.774 516.184 252.069 499.406"></path>
</g>
<path stroke-width="1.49733" stroke="#6DC9D6" d="M266.611 469.282C263.094 477.52 260.343 485.368 258.355 492.827C254.507 507.315 254.202 522.079 257.441 537.12C263.103 563.437 277.034 584.077 299.243 599.044C313.414 608.601 329.219 614.053 346.65 615.402C349.365 615.615 351.791 615.363 353.923 614.653"></path>
<mask height="332" width="97" y="283" x="315" maskUnits="userSpaceOnUse" style="mask-type:luminance" id="mask8_1244_17063">
<path fill="white" d="M315.812 283H411.981V614.73H315.812V283Z"></path>
</mask>
<g mask="url(#mask8_1244_17063)">
<path fill="#0286C0" d="M385.514 283C386.328 283 387.135 283 387.937 283C396.092 289.803 403.567 297.287 410.361 305.451C409.982 305.551 409.654 305.528 409.379 305.38C409.018 305.188 408.616 305.199 408.424 305.421C406.309 307.767 404.078 310.003 401.733 312.127C395.379 317.877 389.83 324.328 385.085 331.475C367.385 358.167 365.359 386.206 379.004 415.587C381.285 420.479 383.68 425.31 386.192 430.072C401.171 458.474 409.571 488.743 411.399 520.875C412.251 535.786 410.376 550.321 405.776 564.475C398.207 587.781 383.169 603.937 360.668 612.95C359.993 613.219 358.866 613.435 357.287 613.6C356.124 613.722 355.003 614.071 353.924 614.654C363.655 603.298 370.447 590.389 374.295 575.928C380.465 554.755 380.829 533.059 375.389 510.833C372.603 499.43 368.894 488.935 364.267 479.351C362.605 475.89 360.094 472.033 356.734 467.786C349.939 459.19 342.68 449.044 334.96 437.345C325.323 422.718 319.177 407.512 316.526 391.722C315.512 385.682 315.668 379.479 316.997 373.108C317.553 370.449 319.117 364.521 321.694 355.325C324.196 346.359 327.58 338.55 331.845 331.904C344.798 311.71 362.691 295.409 385.514 283Z"></path>
</g>
<path fill="#33B9CB" d="M410.361 305.451C431.247 331.507 447.267 360.291 458.421 391.805C471.513 428.785 479.615 466.845 482.727 505.985C483.144 511.211 483.117 519.532 482.644 530.944C482.212 541.69 481.467 549.954 480.414 555.734C476.766 575.727 468.392 593.51 455.292 609.087C429.484 639.74 396.08 654.476 355 652C350.5 651.729 347 651.397 342.843 650.616C320.229 646.368 300.585 635.723 283.908 619.972C264.223 601.366 252.261 578.605 248.023 551.691C248.191 551.173 248.171 549.904 247.969 547.881C246.408 532.343 247.774 516.184 252.069 499.406C255.412 488.639 260.257 478.6 266.61 469.282C263.093 477.52 260.343 485.368 258.355 492.828C254.506 507.316 254.202 522.079 257.441 537.12C263.102 563.437 277.034 584.077 299.242 599.044C313.414 608.602 329.218 614.053 346.649 615.402C349.365 615.615 351.79 615.363 353.923 614.654C355.003 614.071 356.124 613.722 357.286 613.601C358.866 613.435 359.993 613.219 360.667 612.95C383.168 603.937 398.206 587.781 405.776 564.475C410.375 550.321 412.251 535.786 411.399 520.875C409.571 488.743 401.17 458.474 386.191 430.072C383.68 425.31 381.284 420.479 379.003 415.587C365.358 386.206 367.385 358.167 385.085 331.475C389.829 324.328 395.379 317.877 401.732 312.127C404.078 310.003 406.308 307.767 408.423 305.421C408.615 305.199 409.018 305.188 409.379 305.38C409.654 305.528 409.982 305.551 410.361 305.451Z"></path>
<path fill="#A7D9E0" d="M374.295 575.928C370.446 590.389 363.655 603.297 353.923 614.653C351.791 615.363 349.365 615.614 346.65 615.401C329.219 614.053 313.414 608.601 299.243 599.044C277.034 584.077 263.103 563.436 257.441 537.119C254.202 522.078 254.507 507.315 258.355 492.827C260.343 485.367 263.094 477.52 266.611 469.282C275.272 455.036 286.606 443.382 300.612 434.325C304.981 431.509 306.836 432.151 306.182 436.251C306.034 437.218 305.599 438.605 304.878 440.403C300.89 450.443 298.373 460.769 297.332 471.388C296.406 480.723 296.873 489.902 298.728 498.92C303.319 521.164 314.589 539.882 332.537 555.071C343.1 564.007 355.071 570.278 368.45 573.878C370.446 574.413 372.393 575.096 374.295 575.928Z"></path>
<path fill="#0286C0" d="M252.07 499.406C247.775 516.184 246.408 532.343 247.97 547.881C248.171 549.904 248.192 551.173 248.023 551.691C245.568 533.934 246.917 516.506 252.07 499.406Z"></path>
</svg>
