<svg xmlns="http://www.w3.org/2000/svg" version="1.1" xmlns:xlink="http://www.w3.org/1999/xlink" xmlns:svgjs="http://svgjs.dev/svgjs" width="2000" height="2250" viewBox="0 0 2000 2250"><g transform="matrix(1,0,0,1,0,0)"><svg viewBox="0 0 320 360" data-background-color="#ffffff" preserveAspectRatio="xMidYMid meet" height="2250" width="2000" xmlns="http://www.w3.org/2000/svg" xmlns:xlink="http://www.w3.org/1999/xlink"><g id="tight-bounds" transform="matrix(1,0,0,1,0,0)"><svg viewBox="0 0 320 360" height="360" width="320"><g><svg></svg></g><g><svg viewBox="0 0 320 360" height="360" width="320"><g><path xmlns="http://www.w3.org/2000/svg" d="M219.58 41.008c0.707 0 6.365 2.829 9.547 3.89-1.061 0.354-3.536-0.707-6.365-1.768 0.707 0 2.122 0.354 3.536 1.06-0.707-0.707-6.011-2.475-6.718-3.182M166.895 30.047c1.061-0.354 13.436 1.414 19.094 1.768 0.354-0.354-0.707-0.354-2.122-0.707 1.768-0.354 5.304 0.707 7.779 1.06-7.425 0.354-15.558-1.768-22.629-1.06-2.475 0-0.707-0.707-2.122-1.061M156.641 30.047c6.365 0 11.315 0 2.121 0.707-1.061-0.354-2.475-0.354-2.121-0.707M256.707 59.395c0.707 0 3.536 3.182 4.95 4.243-0.354 0.354-3.182-2.475-4.596-3.536 0.354 0.354 0 0-0.354-0.707M249.635 54.798c-2.829-2.475-3.889-2.475-4.243-3.889 2.475 1.414 4.243 2.829 4.243 3.889M204.022 32.522c0.354-0.354 1.061 0.354 2.829 0.707-2.122-0.354-1.768 0-1.061 0.707-2.475-0.354-3.182-0.707-2.475-1.414 1.414 0.707 1.768 0.354 0.707 0M103.602 36.765c0-0.354 1.414-1.061 2.475-1.414-1.061 0.707-0.707 1.061 1.061 0.353 0 0.354-2.122 1.061-3.536 1.768 0.707-0.354 1.414-1.414 0-0.707M211.094 28.986c-1.061 0.354-4.95-1.768-8.84-2.475-2.122-0.707 8.486 1.768 8.84 2.475M2.475 203.66c2.122 8.84 0.707 8.486 0 0M2.829 150.621c0.354-1.414 0.707-5.304 1.06-4.95-1.061 8.486-2.829 12.376-3.182 18.74 1.061-5.657-0.354 3.182-0.707 5.304 0.354 2.829 0.354-1.768 1.061-1.06 0.707 1.061-1.414 15.912-0.707 7.779-0.707 7.425 0 15.558 1.414 17.679-1.768 11.315 7.072 36.773 8.84 42.077 0.354 0.354 0-1.768 0.707-0.353 0.707 4.597 3.889 7.779 4.95 12.729 1.061 1.414 5.304 9.193 6.011 10.962 1.414 2.829 2.122 2.475 3.536 5.303 4.243 8.133 10.961 15.912 17.326 23.337 20.508 24.044 51.978 43.845 86.984 50.918 35.006 7.425 71.779 2.122 100.419-11.669 1.768-1.061 1.414-1.414 3.536-2.122 9.901-3.182 21.923-13.436 28.641-17.326 3.182-3.536 11.669-9.547 12.73-13.082 6.011-4.95 12.022-13.083 15.204-18.387 1.768-2.829 3.182-2.829 3.889-4.597-0.354 0 5.657-7.425 7.426-11.668-0.707 0-1.768 2.122-1.768 0 12.729-24.398 19.801-57.282 15.911-79.912 0.707 27.934-6.365 59.05-19.801 78.851-6.011 12.729-18.387 26.519-29.701 36.42-1.768 1.768-3.536 3.889-5.658 5.304-6.718 5.657-14.144 10.254-21.922 14.497-18.387 10.254-38.895 19.094-62.94 19.447 41.37-3.536 78.497-24.398 99.006-49.856-15.558 15.204-22.276 21.215-39.602 30.055-1.414 2.475-13.083 7.425-20.862 9.547 4.597-2.122 14.144-5.657 17.326-8.486-25.812 12.376-54.453 19.448-81.326 15.558 10.254 0 24.751 0.354 38.541-2.121 2.122-0.707 3.182-1.414 5.658-1.768 26.873-6.011 52.685-19.094 71.072-37.481-10.608 9.547-26.519 20.862-36.774 24.398 9.547-5.304 26.873-15.558 32.53-23.337-11.315 11.315-32.53 22.63-45.966 27.58-2.122 0.354 1.414-1.414-2.122 0-4.243 1.061-2.475 1.061-3.536 1.768-16.265 4.597-35.006 8.486-50.563 7.072-2.829-0.354-3.889-1.061-6.365-1.061-2.829-0.354-5.304-0.354-8.486-0.354-12.376-1.414-25.812-6.365-35.713-10.607-5.304-2.475-10.608-4.243-15.912-7.426-4.243-2.475-7.779-5.304-11.314-8.132-13.436-9.901-24.751-19.801-35.36-33.945-19.094-26.519-28.994-59.757-27.58-92.641 1.414-32.884 14.497-65.061 35.359-88.752-1.061 1.061 1.414-2.475 3.536-4.596 0 0.707-0.354 1.768 2.122-0.707 2.122-2.475-0.707-0.707 0.353-2.122 21.923-24.044 60.111-43.492 99.36-44.199 1.414-1.061 3.889-2.475 6.718-1.768 0 0.354-1.768 0.354-1.768 0.354 3.889-0.354 7.425-0.354 9.193 0.353 0.354-0.354-1.414-0.707 0-0.707 2.475 0.707 3.182 0 4.597 0.707-1.061 0-2.122 0-2.829 0.354 8.84 0 14.497 2.122 23.337 2.829-4.597-1.061-5.657-1.061-9.193-2.122 3.889 0.707 5.657 1.414 7.425 1.061-0.707 0-0.354-1.061 0.354-0.707 7.072 1.768 7.779 2.475 15.204 4.95 0.707-0.707-3.182-1.061-4.243-2.122 7.072 2.475 13.436 4.243 17.68 7.072-1.414-1.061-5.657-2.475-8.84-3.889-0.354 0.354 1.061 0.707 1.414 1.414-3.536-1.768-8.486-3.536-13.436-4.243 4.243 1.061 7.072 2.475 8.84 3.182-3.889-0.707-8.84-3.182-14.498-4.243 9.193 2.829 26.519 9.193 37.127 14.851-3.889-2.475-8.486-4.243-10.961-5.657 2.122 0.354 4.597 1.768 4.597 1.06 2.475 1.061 5.657 3.536 7.425 3.89-3.182-2.122-9.547-5.304-11.668-6.365 26.519 12.022 50.21 32.177 65.414 57.989 1.414 2.475 3.536 8.133 5.304 8.84-0.354-1.768-1.768-2.829-3.182-5.657 0.707 0 0.707-1.061 0-2.122-1.414-1.768 0 1.414-1.415-0.354-6.365-11.669-14.144-21.923-26.165-33.237 6.718 6.365 1.768 1.768 0.353-0.354 9.193 8.133 19.801 21.923 24.398 28.995-0.707-1.061-1.061-1.768-0.707-1.768 8.486 14.497 13.79 27.58 19.094 46.32 0.354 0.354 0-1.414 0.707-0.353 3.536 14.851 4.597 27.227 4.243 38.541 2.829-19.094-3.536-48.796-14.851-72.133-1.414-2.829-1.414-0.707-2.829-3.889 0-1.061-1.061-3.182-1.768-4.597-14.144-23.337-31.47-39.956-51.978-53.038 1.414 0.707 4.243 2.829 4.244 2.475-38.188-25.105-82.387-28.641-118.807-20.862-2.475 1.061-3.536 2.122-6.365 3.536 5.304-1.768 8.486-2.122 13.437-3.183 1.061-1.061-4.597 0.354-2.122-0.707 0.354 0.354 4.95-0.707 6.011-0.353 0 0.354-1.414 0.707-1.768 1.06 11.669-2.475 23.691-2.829 33.945-2.121-6.011 0.354-16.972-0.707-20.508 1.061 3.536-0.354 8.486-0.707 11.668-0.354-4.243 0-12.022 0.354-15.558 0.707-0.354-0.354 5.657-1.061 1.768-1.06-1.768 0.354-4.597 0.354-5.657 1.414-30.409 2.829-60.111 18.74-80.973 37.481-4.243 3.536-9.193 7.425-12.375 11.314-7.779 8.84-12.729 17.68-18.387 25.459 3.536-7.425 11.315-18.74 20.508-28.287 9.193-9.547 19.094-17.68 24.398-21.923 0 1.414 8.486-5.304 11.669-7.425-2.122 1.768 1.414-0.707 2.121-0.354 11.315-6.718 20.508-9.193 30.763-13.083-2.475 0.707-4.597 1.414-4.951 1.061 2.475-0.707 3.889-1.414 3.536-1.768-9.901 2.829-25.459 9.547-37.834 16.972 22.276-15.204 50.564-24.398 78.497-24.751 27.934-0.707 55.16 6.365 76.729 17.68 14.497 6.365 28.287 18.033 39.249 29.348 3.182 2.829 0.707-0.707 5.304 4.243-1.414-0.707-2.475-1.414-0.707 0.707 2.829 3.182-0.707-2.475 3.889 3.182-0.354 0-1.768-1.768-1.768-1.061 12.376 10.961 21.923 30.762 27.58 43.846-1.414-5.304-4.95-12.729-7.779-18.033 8.486 15.558 11.315 24.751 14.851 38.541 1.414 1.061-0.707-4.95 0.707-2.121 0.354 2.122 0.707 8.84 2.122 9.9-1.061-6.718-2.829-14.851-4.243-16.265 1.061 0.707-1.768-8.133-3.536-10.254-0.707-5.657-5.657-15.558-9.901-22.984-15.204-29.702-42.431-54.099-72.839-67.536 0-0.707-1.768-1.414-2.476-2.121-30.055-12.729-66.122-16.265-100.773-8.133-35.006 8.486-67.889 28.641-91.227 57.636 1.061-3.536 9.901-10.254 10.255-13.083-10.254 10.961-21.215 25.459-28.641 41.016-7.779 15.558-12.022 31.47-13.79 43.138" fill="#7cd5fa" fill-rule="nonzero" stroke="none" stroke-width="1" stroke-linecap="butt" stroke-linejoin="miter" stroke-miterlimit="10" stroke-dasharray="" stroke-dashoffset="0" font-family="none" font-weight="none" font-size="none" text-anchor="none" style="mix-blend-mode: normal" data-fill-palette-color="tertiary"></path></g><g transform="matrix(1,0,0,1,72.66538914506354,90)"><svg viewBox="0 0 174.66922170987291 180" height="180" width="174.66922170987291"><g><svg viewBox="0 0 174.66922170987291 180" height="180" width="174.66922170987291"><g><svg viewBox="0 0 224 230.83631795744685" height="180" width="174.66922170987291"><g transform="matrix(1,0,0,1,0,142.66610519148938)"><svg viewBox="0 0 224 88.17021276595746" height="88.17021276595746" width="224"><g id="textblocktransform"><svg viewBox="0 0 224 88.17021276595746" height="88.17021276595746" width="224" id="textblock"><g><svg viewBox="0 0 224 88.17021276595746" height="88.17021276595746" width="224"><g transform="matrix(1,0,0,1,0,0)"><svg width="224" viewBox="1.2200000286102295 -31.010000228881836 80.31999969482422 31.6200008392334" height="88.17021276595746" data-palette-color="#77d4fc"><path d="M14.65 0.61Q17.07 0.61 19.27-0.21 21.48-1.03 23.14-2.26 24.8-3.49 25.76-4.76L25.76-4.76 25.05-6.15Q23.32-4.39 21.04-3.22 18.77-2.05 16.33-2.05L16.33-2.05Q13.09-2.05 10.57-3.66 8.06-5.27 6.63-8.4 5.2-11.52 5.2-15.89L5.2-15.89Q5.2-19.78 6.47-22.8 7.74-25.83 9.91-27.5 12.08-29.17 14.67-29.17L14.67-29.17Q19.17-29.17 21.22-26.51L21.22-26.51 22.09-20.65 23.75-20.41 24.51-28.59Q21.34-31.01 15.94-31.01L15.94-31.01Q11.11-31.01 7.79-28.53 4.47-26.05 2.84-22.27 1.22-18.48 1.22-14.62L1.22-14.62Q1.22-9.96 2.99-6.51 4.76-3.05 7.82-1.22 10.89 0.61 14.65 0.61L14.65 0.61ZM27.88-28.98L32.3-28.05 32.3-2.47 28.29-1.42 28.1 0 40.31 0 40.55-1.54 35.98-2.32 35.98-28.13 40.16-28.98 40.33-30.37 28.12-30.37 27.88-28.98ZM36.98-14.75L43.75-6.01Q45.41-3.88 46.75-2.51 48.09-1.15 49.62-0.32 51.14 0.51 52.88 0.51L52.88 0.51Q53.61 0.51 54.26 0.38 54.9 0.24 55.78-0.05L55.78-0.05 56.05-1.42 54.93-1.66Q53.46-2 52.26-2.83 51.05-3.66 49.86-4.91 48.68-6.15 46.51-8.74L46.51-8.74 40.52-15.84 50.56-28.13 54.59-28.98 54.76-30.37 43.77-30.37 43.63-28.98 47.65-28.1 40.6-19.29Q39.38-17.77 36.94-15.21L36.94-15.21 36.98-14.75ZM71.75 0L72.02-1.59 66.28-2.29 66.28-28.96Q66.55-28.98 67.39-29.04 68.23-29.1 68.87-29.1L68.87-29.1Q71.72-29.1 73.66-28.02 75.61-26.93 76.55-25.11 77.49-23.29 77.49-21.12L77.49-21.12Q77.49-17.72 75.42-15.72 73.36-13.72 69.09-13.55L69.09-13.55 67.79-13.5 68.16-11.99Q68.99-11.91 69.97-11.91L69.97-11.91Q72.99-11.91 75.65-13.17 78.32-14.43 79.93-16.69 81.54-18.95 81.54-21.8L81.54-21.8Q81.54-26.46 78.18-28.56 74.82-30.66 69.5-30.66L69.5-30.66Q66.99-30.66 64.75-30.42 62.52-30.18 59.64-29.71L59.64-29.71 58.74-29.57 58.54-28.2 62.59-27.56 62.59-2.34 58.61-1.42 58.42 0 71.75 0Z" opacity="1" transform="matrix(1,0,0,1,0,0)" fill="#77d4fc" class="wordmark-text-0" data-fill-palette-color="primary" id="text-0"></path></svg></g></svg></g></svg></g></svg></g><g transform="matrix(1,0,0,1,68.80144112451163,0)"><svg viewBox="0 0 86.39711775097675 121.85123404255322" height="121.85123404255322" width="86.39711775097675"><g><svg xmlns="http://www.w3.org/2000/svg" xmlns:xlink="http://www.w3.org/1999/xlink" version="1.1" x="0" y="0" viewBox="21.340194702148438 9.658576011657715 57.319610595703125 80.84141540527344" enable-background="new 0 0 100 100" xml:space="preserve" height="121.85123404255322" width="86.39711775097675" class="icon-icon-0" data-fill-palette-color="accent" id="icon-0"><g fill="#7fcbfc" data-fill-palette-color="accent"><path d="M44.5 36.1c-0.2-0.5-0.5-0.9-0.9-1.3-0.4-0.4-0.8-0.9-1.3-1.3-0.5-0.4-1.1-0.8-1.7-1.1-0.6-0.3-1.4-0.5-2.1-0.6-0.3 0-0.7-0.1-1.1-0.1l-0.6-0.1h-0.6-1.1c-0.4 0-0.7 0.1-1.1 0.1-0.8 0-1.4 0.2-2.1 0.4-0.6 0.2-1.3 0.4-1.8 0.7-0.5 0.3-1.1 0.5-1.5 0.8-0.5 0.3-0.8 0.6-1.2 0.8-0.4 0.3-0.7 0.5-0.9 0.7-0.5 0.3-0.7 0.6-0.7 0.6l0.4 0.5c0 0 0.3-0.2 0.8-0.4 0.5-0.2 1.3-0.5 2.2-0.7 0.5-0.1 1-0.2 1.5-0.3 0.6-0.1 1.1-0.2 1.7-0.2 0.5 0.1 1.1 0 1.7 0.1 0.3 0 0.6 0 0.9 0.1l0.9 0.2c0.6 0.1 1.1 0.4 1.6 0.6 0.6 0.3 1 0.6 1.5 0.8 0.4 0.2 0.9 0.5 1.4 0.6s0.9 0.4 1.4 0.5c0.4 0.1 0.8 0.2 1.2 0.4 0.3 0.2 0.7 0.3 1 0.4 0.6 0.1 1 0.2 1 0.2l0.3-0.3c0 0-0.1-0.4-0.3-1C44.9 36.9 44.7 36.5 44.5 36.1z" fill="#7fcbfc" data-fill-palette-color="accent"></path><path d="M36.1 40.4c-2.9 0-5.4 1.6-5.5 1.6l-0.9 0.6 0.9 0.6c0.1 0.1 2.4 1.6 5.5 1.6 2.9 0 6-1.5 6.2-1.6l2.2 0.2-2.2-1.5C42.2 41.8 39 40.4 36.1 40.4z" fill="#7fcbfc" data-fill-palette-color="accent"></path><path d="M38.2 45.6c-0.6 0-1.2 0.1-1.8 0.1-0.3 0-0.6 0-0.9 0s-0.6-0.1-0.9-0.1c-0.6-0.1-1.1-0.2-1.6-0.3-1-0.2-1.6-0.3-1.6-0.3s0.5 0.5 1.4 0.9c0.5 0.2 1 0.4 1.6 0.6 0.3 0.1 0.6 0.2 0.9 0.2 0.4 0.1 0.6 0.1 1 0.1 1.4-0.1 2.5-0.5 3.4-0.9 0.9-0.4 1.4-0.8 1.4-0.8s-0.7 0.1-1.4 0.2C39.3 45.4 38.8 45.5 38.2 45.6z" fill="#7fcbfc" data-fill-palette-color="accent"></path><path d="M73.5 35.1c-0.2-0.2-0.5-0.4-0.9-0.7-0.4-0.2-0.7-0.5-1.2-0.8-0.4-0.3-1-0.5-1.5-0.8-0.5-0.3-1.2-0.5-1.8-0.7-0.7-0.2-1.3-0.4-2.1-0.4-0.4 0-0.7-0.1-1.1-0.1h-1.1-0.6l-0.6 0.1c-0.4 0-0.8 0.1-1.1 0.1-0.7 0.1-1.5 0.3-2.1 0.6-0.6 0.3-1.2 0.7-1.7 1.1-0.5 0.4-0.9 0.9-1.3 1.3-0.4 0.4-0.7 0.8-0.9 1.3-0.2 0.4-0.4 0.8-0.5 1.1-0.2 0.6-0.3 1-0.3 1l0.3 0.3c0 0 0.4-0.1 1-0.2 0.3-0.1 0.7-0.2 1-0.4 0.4-0.2 0.8-0.3 1.2-0.4 0.5-0.1 0.9-0.4 1.4-0.5s1-0.4 1.4-0.6c0.5-0.2 0.9-0.5 1.5-0.8 0.5-0.2 1-0.5 1.6-0.6l0.9-0.2c0.3-0.1 0.6-0.1 0.9-0.1 0.6-0.1 1.2 0 1.7-0.1 0.6 0 1.1 0.1 1.7 0.2 0.5 0.1 1 0.2 1.5 0.3 0.9 0.2 1.7 0.5 2.2 0.7 0.5 0.2 0.8 0.4 0.8 0.4l0.4-0.5C74.2 35.7 74 35.4 73.5 35.1z" fill="#7fcbfc" data-fill-palette-color="accent"></path><path d="M63.9 40.4c-2.9 0-6.1 1.4-6.2 1.5l-2.2 1.5 2.2-0.2c0.2 0.1 3.3 1.6 6.2 1.6 3.1 0 5.4-1.5 5.5-1.6l0.9-0.6L69.4 42C69.3 42 66.8 40.4 63.9 40.4z" fill="#7fcbfc" data-fill-palette-color="accent"></path><path d="M65.4 45.6c-0.3 0-0.6 0.1-0.9 0.1s-0.6 0-0.9 0c-0.6 0-1.2-0.1-1.8-0.1-0.6-0.1-1.1-0.2-1.5-0.3-0.7-0.1-1.4-0.2-1.4-0.2s0.5 0.4 1.4 0.8c0.9 0.4 2 0.8 3.4 0.9 0.4 0 0.6 0 1-0.1 0.3 0 0.6-0.1 0.9-0.2 0.6-0.2 1.1-0.4 1.6-0.6 0.9-0.4 1.4-0.9 1.4-0.9S68 45.1 67 45.3C66.5 45.4 66 45.5 65.4 45.6z" fill="#7fcbfc" data-fill-palette-color="accent"></path><path d="M63.3 56.4c0 0 2.9 1.1 5.4 1.1 0 0-3.9 6.5-7.6 7.4-3.8 1-6.6-2.2-6.6-2.2l1.4-1.7c0 0 3.2 1.2 3.2-2.7 0 0-1.4 1.7-4.6 1 0 0-1.8 2.7-4.5 2.7s-4.5-2.7-4.5-2.7c-3.2 0.7-4.6-1-4.6-1 0 3.9 3.2 2.7 3.2 2.7l1.4 1.7c0 0-2.8 3.2-6.6 2.2-3.7-0.9-7.6-7.4-7.6-7.4 2.5 0 5.4-1.1 5.4-1.1-7.4 0.8-11.2-2-12.9-4.1l1.7 2.9c0.1 0.5 0.2 0.9 0.2 1.4 0 0.1 0 0.1 0 0.2 0 0.3 0 0.8 0.1 1.4 0.1 0.6 0.2 1.3 0.3 2.1 0.2 0.8 0.3 1.7 0.6 2.7 0.2 1 0.6 2 0.9 3.1 0.1 0.5 0.4 1 0.6 1.6s0.4 1.1 0.7 1.7c0.6 1.1 1.1 2.3 1.8 3.4 0.3 0.6 0.6 1.2 1 1.7l1.1 1.6 0.6 0.8 0.6 0.7c0.5 0.5 0.9 1 1.3 1.5 0.9 0.9 1.8 1.8 2.7 2.6 0.9 0.9 1.8 1.5 2.7 2.2 0.8 0.7 1.8 1.2 2.6 1.7 0.9 0.5 1.6 1 2.3 1.3 0.7 0.4 1.3 0.7 1.8 0.9 0.1 0.1 0.2 0.1 0.3 0.1 0 0.2 0.1 0.4 0.1 0.6 0 1 2.2 2 2.2 2s2.2-1 2.2-2c0-0.2 0.1-0.4 0.1-0.6 0.1 0 0.2 0 0.3-0.1 0.5-0.2 1.1-0.5 1.8-0.9 0.7-0.3 1.4-0.8 2.3-1.3 0.8-0.5 1.8-1 2.6-1.7 0.9-0.7 1.8-1.3 2.7-2.2 0.9-0.8 1.8-1.7 2.7-2.6 0.4-0.5 0.8-1 1.3-1.5l0.6-0.7 0.6-0.8 1.1-1.6c0.4-0.5 0.7-1.1 1-1.7 0.7-1.1 1.2-2.3 1.8-3.4 0.3-0.6 0.5-1.1 0.7-1.7s0.5-1.1 0.6-1.6c0.3-1.1 0.7-2.1 0.9-3.1 0.3-1 0.4-1.9 0.6-2.7 0.1-0.8 0.2-1.5 0.3-2.1 0.1-0.6 0.1-1.1 0.1-1.4 0-0.1 0-0.1 0-0.2 0-0.5 0.1-0.9 0.2-1.4l1.7-2.9C74.5 54.4 70.7 57.2 63.3 56.4zM70.1 62.4c0 0.2-0.1 0.4-0.1 0.6-1.2 2.6-3 6.2-6.1 11 0 0 2.1-2.2 4.6-5.6 0 0 0-0.1 0.1-0.1 0 0-0.1 0.1-0.1 0.1 0 0 0 0 0 0.1-0.4 1.1-0.8 2.2-1.3 3.3-0.3 0.5-0.5 1.1-0.8 1.7l-0.9 1.6L65 75.9l-0.5 0.8c-0.4 0.5-0.7 1-1.1 1.5-0.7 1-1.6 1.9-2.3 2.8-0.8 0.9-1.7 1.6-2.4 2.3-0.8 0.8-1.6 1.3-2.4 1.9-0.8 0.6-1.4 1.1-2.1 1.5-0.7 0.4-1.2 0.7-1.7 1l-0.1 0.1c0.1-0.7 0.5-1.6 1-4.1 0.7-3.5-0.1-3.6-0.7-5.7-0.4-1.5 0.2-2.3 0.5-2.6 0.2-0.2 0.4-0.3 0.6-0.4 0.9-0.6 1.3-1.2 1.3-1.2s-0.7 0.1-1.7 0.2c-0.5 0-1 0.1-1.6 0.1-0.3 0-0.6 0-0.9 0.1-0.3 0-0.6 0-0.9 0s-0.6 0-0.9 0c-0.3-0.1-0.6-0.1-0.9-0.1-0.6 0-1.1-0.1-1.6-0.1-1-0.1-1.7-0.2-1.7-0.2s0.4 0.6 1.3 1.2c0.2 0.1 0.4 0.2 0.6 0.4 0.3 0.3 0.9 1.1 0.5 2.6-0.6 2.1-1.4 2.2-0.7 5.7 0.5 2.5 0.9 3.4 1 4.1l-0.1-0.1c-0.5-0.3-1-0.6-1.7-1-0.7-0.4-1.3-0.9-2.1-1.5-0.8-0.6-1.6-1.1-2.4-1.9-0.7-0.7-1.6-1.4-2.4-2.3-0.7-0.9-1.6-1.8-2.3-2.8-0.4-0.5-0.7-1-1.1-1.5L35 75.9l-0.5-0.8-0.9-1.6c-0.3-0.6-0.5-1.2-0.8-1.7-0.5-1.1-0.9-2.2-1.3-3.3 0 0 0-0.1 0-0.1 0 0-0.1-0.1-0.1-0.1 0.1 0.1 0.1 0.1 0.1 0.1 2.5 3.3 4.6 5.6 4.6 5.6-3.1-4.8-4.9-8.4-6.1-11 0-0.2-0.1-0.4-0.1-0.6-0.2-0.9-0.2-1.8-0.3-2.5 4.3 7.9 10.4 8.7 10.4 8.7h5.4c0.8 0 1.6-0.4 2.2-1l2.3-2.5 0.1 0.1 0.1-0.1 2.3 2.5c0.6 0.6 1.4 1 2.2 1H60c0 0 6.1-0.8 10.4-8.7C70.3 60.6 70.3 61.5 70.1 62.4z" fill="#7fcbfc" data-fill-palette-color="accent"></path><path d="M78.6 43c-0.2-3.1-0.8-6.1-1.1-9.2-0.2-1.5-0.2-3-0.5-4.6-0.2-1.6-0.5-3.1-0.9-4.6-0.8-3.1-2-6.1-4.1-8.8-1-1.3-2.3-2.5-3.8-3.3-1.5-0.9-3.2-1.4-4.8-1.6-3.1-0.5-6.1-0.9-9.3-1.1-1.4-0.1-2.8-0.2-4.1-0.1-1.3 0-2.7 0-4.1 0.1-3.2 0.2-6.2 0.6-9.3 1.1-1.6 0.2-3.3 0.7-4.8 1.6-1.5 0.8-2.8 2-3.8 3.3-2.1 2.7-3.3 5.7-4.1 8.8-0.4 1.5-0.7 3-0.9 4.6-0.3 1.6-0.3 3.1-0.5 4.6-0.3 3.1-0.9 6.1-1.1 9.2-0.1 1.6-0.1 3.2 0.2 4.7 0.2 1.3 0.7 2.4 1.4 3.4 0.2 0.3 0.5 0.7 0.8 1.2l-0.5-0.8c-0.7-1.2-1.1-2.5-1.1-3.7-0.2-1.5 0-3 0.2-4.5 0.4-3 1.3-5.9 1.8-9 0.2-1.5 0.4-3 0.7-4.5 0.3-1.5 0.7-3 1.1-4.4 0.8-2.8 2.1-5.5 3.9-7.7 1-1.1 2-2.4 3.2-3 1.2-0.7 2.4-1 3.9-1.2 3-0.4 6-0.8 9-1 1.4-0.1 2.7-0.2 4-0.1 1.3-0.1 2.6 0 4 0.1 3 0.2 6 0.6 9 1 1.5 0.2 2.7 0.5 3.9 1.2 1.2 0.6 2.2 1.9 3.2 3 1.8 2.2 3.1 4.9 3.9 7.7 0.4 1.4 0.8 2.9 1.1 4.4 0.3 1.5 0.5 3 0.7 4.5 0.5 3.1 1.4 6 1.8 9 0.2 1.5 0.4 3 0.2 4.5 0 1.2-0.4 2.5-1.1 3.7l-0.5 0.8c0.3-0.5 0.6-0.9 0.8-1.2 0.7-1 1.2-2.1 1.4-3.4C78.7 46.2 78.7 44.6 78.6 43z" fill="#7fcbfc" data-fill-palette-color="accent"></path></g></svg></g></svg></g><g></g></svg></g></svg></g></svg></g></svg></g><defs></defs></svg><rect width="320" height="360" fill="none" stroke="none" visibility="hidden"></rect></g></svg></g></svg>